<?xml version="1.0" encoding="utf-8" standalone="no"?>
<!DOCTYPE svg PUBLIC "-//W3C//DTD SVG 1.1//EN"
  "http://www.w3.org/Graphics/SVG/1.1/DTD/svg11.dtd">
<!-- Created with matplotlib (https://matplotlib.org/) -->
<svg height="504pt" version="1.1" viewBox="0 0 720 504" width="720pt" xmlns="http://www.w3.org/2000/svg" xmlns:xlink="http://www.w3.org/1999/xlink">
 <defs>
  <style type="text/css">
*{stroke-linecap:butt;stroke-linejoin:round;}
  </style>
 </defs>
 <g id="figure_1">
  <g id="patch_1">
   <path d="M 0 504 
L 720 504 
L 720 0 
L 0 0 
z
" style="fill:#ffffff;"/>
  </g>
  <g id="axes_1">
   <g id="patch_2">
    <path d="M 90 441 
L 648 441 
L 648 60.48 
L 90 60.48 
z
" style="fill:#ffffff;"/>
   </g>
   <g id="matplotlib.axis_1">
    <g id="xtick_1">
     <g id="line2d_1">
      <path clip-path="url(#p3d6b09eaa8)" d="M 115.363636 441 
L 115.363636 60.48 
" style="fill:none;stroke:#b0b0b0;stroke-linecap:square;stroke-opacity:0.4;stroke-width:0.8;"/>
     </g>
     <g id="line2d_2">
      <defs>
       <path d="M 0 0 
L 0 3.5 
" id="mea80f3518a" style="stroke:#000000;stroke-width:0.8;"/>
      </defs>
      <g>
       <use style="stroke:#000000;stroke-width:0.8;" x="115.363636" xlink:href="#mea80f3518a" y="441"/>
      </g>
     </g>
     <g id="text_1">
      <!-- 2 -->
      <defs>
       <path d="M 19.1875 8.296875 
L 53.609375 8.296875 
L 53.609375 0 
L 7.328125 0 
L 7.328125 8.296875 
Q 12.9375 14.109375 22.625 23.890625 
Q 32.328125 33.6875 34.8125 36.53125 
Q 39.546875 41.84375 41.421875 45.53125 
Q 43.3125 49.21875 43.3125 52.78125 
Q 43.3125 58.59375 39.234375 62.25 
Q 35.15625 65.921875 28.609375 65.921875 
Q 23.96875 65.921875 18.8125 64.3125 
Q 13.671875 62.703125 7.8125 59.421875 
L 7.8125 69.390625 
Q 13.765625 71.78125 18.9375 73 
Q 24.125 74.21875 28.421875 74.21875 
Q 39.75 74.21875 46.484375 68.546875 
Q 53.21875 62.890625 53.21875 53.421875 
Q 53.21875 48.921875 51.53125 44.890625 
Q 49.859375 40.875 45.40625 35.40625 
Q 44.1875 33.984375 37.640625 27.21875 
Q 31.109375 20.453125 19.1875 8.296875 
z
" id="DejaVuSans-50"/>
      </defs>
      <g transform="translate(112.182386 455.598437)scale(0.1 -0.1)">
       <use xlink:href="#DejaVuSans-50"/>
      </g>
     </g>
    </g>
    <g id="xtick_2">
     <g id="line2d_3">
      <path clip-path="url(#p3d6b09eaa8)" d="M 136.5 441 
L 136.5 60.48 
" style="fill:none;stroke:#b0b0b0;stroke-linecap:square;stroke-opacity:0.4;stroke-width:0.8;"/>
     </g>
     <g id="line2d_4">
      <g>
       <use style="stroke:#000000;stroke-width:0.8;" x="136.5" xlink:href="#mea80f3518a" y="441"/>
      </g>
     </g>
     <g id="text_2">
      <!-- 3 -->
      <defs>
       <path d="M 40.578125 39.3125 
Q 47.65625 37.796875 51.625 33 
Q 55.609375 28.21875 55.609375 21.1875 
Q 55.609375 10.40625 48.1875 4.484375 
Q 40.765625 -1.421875 27.09375 -1.421875 
Q 22.515625 -1.421875 17.65625 -0.515625 
Q 12.796875 0.390625 7.625 2.203125 
L 7.625 11.71875 
Q 11.71875 9.328125 16.59375 8.109375 
Q 21.484375 6.890625 26.8125 6.890625 
Q 36.078125 6.890625 40.9375 10.546875 
Q 45.796875 14.203125 45.796875 21.1875 
Q 45.796875 27.640625 41.28125 31.265625 
Q 36.765625 34.90625 28.71875 34.90625 
L 20.21875 34.90625 
L 20.21875 43.015625 
L 29.109375 43.015625 
Q 36.375 43.015625 40.234375 45.921875 
Q 44.09375 48.828125 44.09375 54.296875 
Q 44.09375 59.90625 40.109375 62.90625 
Q 36.140625 65.921875 28.71875 65.921875 
Q 24.65625 65.921875 20.015625 65.03125 
Q 15.375 64.15625 9.8125 62.3125 
L 9.8125 71.09375 
Q 15.4375 72.65625 20.34375 73.4375 
Q 25.25 74.21875 29.59375 74.21875 
Q 40.828125 74.21875 47.359375 69.109375 
Q 53.90625 64.015625 53.90625 55.328125 
Q 53.90625 49.265625 50.4375 45.09375 
Q 46.96875 40.921875 40.578125 39.3125 
z
" id="DejaVuSans-51"/>
      </defs>
      <g transform="translate(133.31875 455.598437)scale(0.1 -0.1)">
       <use xlink:href="#DejaVuSans-51"/>
      </g>
     </g>
    </g>
    <g id="xtick_3">
     <g id="line2d_5">
      <path clip-path="url(#p3d6b09eaa8)" d="M 157.636364 441 
L 157.636364 60.48 
" style="fill:none;stroke:#b0b0b0;stroke-linecap:square;stroke-opacity:0.4;stroke-width:0.8;"/>
     </g>
     <g id="line2d_6">
      <g>
       <use style="stroke:#000000;stroke-width:0.8;" x="157.636364" xlink:href="#mea80f3518a" y="441"/>
      </g>
     </g>
     <g id="text_3">
      <!-- 4 -->
      <defs>
       <path d="M 37.796875 64.3125 
L 12.890625 25.390625 
L 37.796875 25.390625 
z
M 35.203125 72.90625 
L 47.609375 72.90625 
L 47.609375 25.390625 
L 58.015625 25.390625 
L 58.015625 17.1875 
L 47.609375 17.1875 
L 47.609375 0 
L 37.796875 0 
L 37.796875 17.1875 
L 4.890625 17.1875 
L 4.890625 26.703125 
z
" id="DejaVuSans-52"/>
      </defs>
      <g transform="translate(154.455114 455.598437)scale(0.1 -0.1)">
       <use xlink:href="#DejaVuSans-52"/>
      </g>
     </g>
    </g>
    <g id="xtick_4">
     <g id="line2d_7">
      <path clip-path="url(#p3d6b09eaa8)" d="M 178.772727 441 
L 178.772727 60.48 
" style="fill:none;stroke:#b0b0b0;stroke-linecap:square;stroke-opacity:0.4;stroke-width:0.8;"/>
     </g>
     <g id="line2d_8">
      <g>
       <use style="stroke:#000000;stroke-width:0.8;" x="178.772727" xlink:href="#mea80f3518a" y="441"/>
      </g>
     </g>
     <g id="text_4">
      <!-- 5 -->
      <defs>
       <path d="M 10.796875 72.90625 
L 49.515625 72.90625 
L 49.515625 64.59375 
L 19.828125 64.59375 
L 19.828125 46.734375 
Q 21.96875 47.46875 24.109375 47.828125 
Q 26.265625 48.1875 28.421875 48.1875 
Q 40.625 48.1875 47.75 41.5 
Q 54.890625 34.8125 54.890625 23.390625 
Q 54.890625 11.625 47.5625 5.09375 
Q 40.234375 -1.421875 26.90625 -1.421875 
Q 22.3125 -1.421875 17.546875 -0.640625 
Q 12.796875 0.140625 7.71875 1.703125 
L 7.71875 11.625 
Q 12.109375 9.234375 16.796875 8.0625 
Q 21.484375 6.890625 26.703125 6.890625 
Q 35.15625 6.890625 40.078125 11.328125 
Q 45.015625 15.765625 45.015625 23.390625 
Q 45.015625 31 40.078125 35.4375 
Q 35.15625 39.890625 26.703125 39.890625 
Q 22.75 39.890625 18.8125 39.015625 
Q 14.890625 38.140625 10.796875 36.28125 
z
" id="DejaVuSans-53"/>
      </defs>
      <g transform="translate(175.591477 455.598437)scale(0.1 -0.1)">
       <use xlink:href="#DejaVuSans-53"/>
      </g>
     </g>
    </g>
    <g id="xtick_5">
     <g id="line2d_9">
      <path clip-path="url(#p3d6b09eaa8)" d="M 199.909091 441 
L 199.909091 60.48 
" style="fill:none;stroke:#b0b0b0;stroke-linecap:square;stroke-opacity:0.4;stroke-width:0.8;"/>
     </g>
     <g id="line2d_10">
      <g>
       <use style="stroke:#000000;stroke-width:0.8;" x="199.909091" xlink:href="#mea80f3518a" y="441"/>
      </g>
     </g>
     <g id="text_5">
      <!-- 6 -->
      <defs>
       <path d="M 33.015625 40.375 
Q 26.375 40.375 22.484375 35.828125 
Q 18.609375 31.296875 18.609375 23.390625 
Q 18.609375 15.53125 22.484375 10.953125 
Q 26.375 6.390625 33.015625 6.390625 
Q 39.65625 6.390625 43.53125 10.953125 
Q 47.40625 15.53125 47.40625 23.390625 
Q 47.40625 31.296875 43.53125 35.828125 
Q 39.65625 40.375 33.015625 40.375 
z
M 52.59375 71.296875 
L 52.59375 62.3125 
Q 48.875 64.0625 45.09375 64.984375 
Q 41.3125 65.921875 37.59375 65.921875 
Q 27.828125 65.921875 22.671875 59.328125 
Q 17.53125 52.734375 16.796875 39.40625 
Q 19.671875 43.65625 24.015625 45.921875 
Q 28.375 48.1875 33.59375 48.1875 
Q 44.578125 48.1875 50.953125 41.515625 
Q 57.328125 34.859375 57.328125 23.390625 
Q 57.328125 12.15625 50.6875 5.359375 
Q 44.046875 -1.421875 33.015625 -1.421875 
Q 20.359375 -1.421875 13.671875 8.265625 
Q 6.984375 17.96875 6.984375 36.375 
Q 6.984375 53.65625 15.1875 63.9375 
Q 23.390625 74.21875 37.203125 74.21875 
Q 40.921875 74.21875 44.703125 73.484375 
Q 48.484375 72.75 52.59375 71.296875 
z
" id="DejaVuSans-54"/>
      </defs>
      <g transform="translate(196.727841 455.598437)scale(0.1 -0.1)">
       <use xlink:href="#DejaVuSans-54"/>
      </g>
     </g>
    </g>
    <g id="xtick_6">
     <g id="line2d_11">
      <path clip-path="url(#p3d6b09eaa8)" d="M 221.045455 441 
L 221.045455 60.48 
" style="fill:none;stroke:#b0b0b0;stroke-linecap:square;stroke-opacity:0.4;stroke-width:0.8;"/>
     </g>
     <g id="line2d_12">
      <g>
       <use style="stroke:#000000;stroke-width:0.8;" x="221.045455" xlink:href="#mea80f3518a" y="441"/>
      </g>
     </g>
     <g id="text_6">
      <!-- 7 -->
      <defs>
       <path d="M 8.203125 72.90625 
L 55.078125 72.90625 
L 55.078125 68.703125 
L 28.609375 0 
L 18.3125 0 
L 43.21875 64.59375 
L 8.203125 64.59375 
z
" id="DejaVuSans-55"/>
      </defs>
      <g transform="translate(217.864205 455.598437)scale(0.1 -0.1)">
       <use xlink:href="#DejaVuSans-55"/>
      </g>
     </g>
    </g>
    <g id="xtick_7">
     <g id="line2d_13">
      <path clip-path="url(#p3d6b09eaa8)" d="M 242.181818 441 
L 242.181818 60.48 
" style="fill:none;stroke:#b0b0b0;stroke-linecap:square;stroke-opacity:0.4;stroke-width:0.8;"/>
     </g>
     <g id="line2d_14">
      <g>
       <use style="stroke:#000000;stroke-width:0.8;" x="242.181818" xlink:href="#mea80f3518a" y="441"/>
      </g>
     </g>
     <g id="text_7">
      <!-- 8 -->
      <defs>
       <path d="M 31.78125 34.625 
Q 24.75 34.625 20.71875 30.859375 
Q 16.703125 27.09375 16.703125 20.515625 
Q 16.703125 13.921875 20.71875 10.15625 
Q 24.75 6.390625 31.78125 6.390625 
Q 38.8125 6.390625 42.859375 10.171875 
Q 46.921875 13.96875 46.921875 20.515625 
Q 46.921875 27.09375 42.890625 30.859375 
Q 38.875 34.625 31.78125 34.625 
z
M 21.921875 38.8125 
Q 15.578125 40.375 12.03125 44.71875 
Q 8.5 49.078125 8.5 55.328125 
Q 8.5 64.0625 14.71875 69.140625 
Q 20.953125 74.21875 31.78125 74.21875 
Q 42.671875 74.21875 48.875 69.140625 
Q 55.078125 64.0625 55.078125 55.328125 
Q 55.078125 49.078125 51.53125 44.71875 
Q 48 40.375 41.703125 38.8125 
Q 48.828125 37.15625 52.796875 32.3125 
Q 56.78125 27.484375 56.78125 20.515625 
Q 56.78125 9.90625 50.3125 4.234375 
Q 43.84375 -1.421875 31.78125 -1.421875 
Q 19.734375 -1.421875 13.25 4.234375 
Q 6.78125 9.90625 6.78125 20.515625 
Q 6.78125 27.484375 10.78125 32.3125 
Q 14.796875 37.15625 21.921875 38.8125 
z
M 18.3125 54.390625 
Q 18.3125 48.734375 21.84375 45.5625 
Q 25.390625 42.390625 31.78125 42.390625 
Q 38.140625 42.390625 41.71875 45.5625 
Q 45.3125 48.734375 45.3125 54.390625 
Q 45.3125 60.0625 41.71875 63.234375 
Q 38.140625 66.40625 31.78125 66.40625 
Q 25.390625 66.40625 21.84375 63.234375 
Q 18.3125 60.0625 18.3125 54.390625 
z
" id="DejaVuSans-56"/>
      </defs>
      <g transform="translate(239.000568 455.598437)scale(0.1 -0.1)">
       <use xlink:href="#DejaVuSans-56"/>
      </g>
     </g>
    </g>
    <g id="xtick_8">
     <g id="line2d_15">
      <path clip-path="url(#p3d6b09eaa8)" d="M 263.318182 441 
L 263.318182 60.48 
" style="fill:none;stroke:#b0b0b0;stroke-linecap:square;stroke-opacity:0.4;stroke-width:0.8;"/>
     </g>
     <g id="line2d_16">
      <g>
       <use style="stroke:#000000;stroke-width:0.8;" x="263.318182" xlink:href="#mea80f3518a" y="441"/>
      </g>
     </g>
     <g id="text_8">
      <!-- 9 -->
      <defs>
       <path d="M 10.984375 1.515625 
L 10.984375 10.5 
Q 14.703125 8.734375 18.5 7.8125 
Q 22.3125 6.890625 25.984375 6.890625 
Q 35.75 6.890625 40.890625 13.453125 
Q 46.046875 20.015625 46.78125 33.40625 
Q 43.953125 29.203125 39.59375 26.953125 
Q 35.25 24.703125 29.984375 24.703125 
Q 19.046875 24.703125 12.671875 31.3125 
Q 6.296875 37.9375 6.296875 49.421875 
Q 6.296875 60.640625 12.9375 67.421875 
Q 19.578125 74.21875 30.609375 74.21875 
Q 43.265625 74.21875 49.921875 64.515625 
Q 56.59375 54.828125 56.59375 36.375 
Q 56.59375 19.140625 48.40625 8.859375 
Q 40.234375 -1.421875 26.421875 -1.421875 
Q 22.703125 -1.421875 18.890625 -0.6875 
Q 15.09375 0.046875 10.984375 1.515625 
z
M 30.609375 32.421875 
Q 37.25 32.421875 41.125 36.953125 
Q 45.015625 41.5 45.015625 49.421875 
Q 45.015625 57.28125 41.125 61.84375 
Q 37.25 66.40625 30.609375 66.40625 
Q 23.96875 66.40625 20.09375 61.84375 
Q 16.21875 57.28125 16.21875 49.421875 
Q 16.21875 41.5 20.09375 36.953125 
Q 23.96875 32.421875 30.609375 32.421875 
z
" id="DejaVuSans-57"/>
      </defs>
      <g transform="translate(260.136932 455.598437)scale(0.1 -0.1)">
       <use xlink:href="#DejaVuSans-57"/>
      </g>
     </g>
    </g>
    <g id="xtick_9">
     <g id="line2d_17">
      <path clip-path="url(#p3d6b09eaa8)" d="M 284.454545 441 
L 284.454545 60.48 
" style="fill:none;stroke:#b0b0b0;stroke-linecap:square;stroke-opacity:0.4;stroke-width:0.8;"/>
     </g>
     <g id="line2d_18">
      <g>
       <use style="stroke:#000000;stroke-width:0.8;" x="284.454545" xlink:href="#mea80f3518a" y="441"/>
      </g>
     </g>
     <g id="text_9">
      <!-- 10 -->
      <defs>
       <path d="M 12.40625 8.296875 
L 28.515625 8.296875 
L 28.515625 63.921875 
L 10.984375 60.40625 
L 10.984375 69.390625 
L 28.421875 72.90625 
L 38.28125 72.90625 
L 38.28125 8.296875 
L 54.390625 8.296875 
L 54.390625 0 
L 12.40625 0 
z
" id="DejaVuSans-49"/>
       <path d="M 31.78125 66.40625 
Q 24.171875 66.40625 20.328125 58.90625 
Q 16.5 51.421875 16.5 36.375 
Q 16.5 21.390625 20.328125 13.890625 
Q 24.171875 6.390625 31.78125 6.390625 
Q 39.453125 6.390625 43.28125 13.890625 
Q 47.125 21.390625 47.125 36.375 
Q 47.125 51.421875 43.28125 58.90625 
Q 39.453125 66.40625 31.78125 66.40625 
z
M 31.78125 74.21875 
Q 44.046875 74.21875 50.515625 64.515625 
Q 56.984375 54.828125 56.984375 36.375 
Q 56.984375 17.96875 50.515625 8.265625 
Q 44.046875 -1.421875 31.78125 -1.421875 
Q 19.53125 -1.421875 13.0625 8.265625 
Q 6.59375 17.96875 6.59375 36.375 
Q 6.59375 54.828125 13.0625 64.515625 
Q 19.53125 74.21875 31.78125 74.21875 
z
" id="DejaVuSans-48"/>
      </defs>
      <g transform="translate(278.092045 455.598437)scale(0.1 -0.1)">
       <use xlink:href="#DejaVuSans-49"/>
       <use x="63.623047" xlink:href="#DejaVuSans-48"/>
      </g>
     </g>
    </g>
    <g id="xtick_10">
     <g id="line2d_19">
      <path clip-path="url(#p3d6b09eaa8)" d="M 305.590909 441 
L 305.590909 60.48 
" style="fill:none;stroke:#b0b0b0;stroke-linecap:square;stroke-opacity:0.4;stroke-width:0.8;"/>
     </g>
     <g id="line2d_20">
      <g>
       <use style="stroke:#000000;stroke-width:0.8;" x="305.590909" xlink:href="#mea80f3518a" y="441"/>
      </g>
     </g>
     <g id="text_10">
      <!-- 11 -->
      <g transform="translate(299.228409 455.598437)scale(0.1 -0.1)">
       <use xlink:href="#DejaVuSans-49"/>
       <use x="63.623047" xlink:href="#DejaVuSans-49"/>
      </g>
     </g>
    </g>
    <g id="xtick_11">
     <g id="line2d_21">
      <path clip-path="url(#p3d6b09eaa8)" d="M 326.727273 441 
L 326.727273 60.48 
" style="fill:none;stroke:#b0b0b0;stroke-linecap:square;stroke-opacity:0.4;stroke-width:0.8;"/>
     </g>
     <g id="line2d_22">
      <g>
       <use style="stroke:#000000;stroke-width:0.8;" x="326.727273" xlink:href="#mea80f3518a" y="441"/>
      </g>
     </g>
     <g id="text_11">
      <!-- 12 -->
      <g transform="translate(320.364773 455.598437)scale(0.1 -0.1)">
       <use xlink:href="#DejaVuSans-49"/>
       <use x="63.623047" xlink:href="#DejaVuSans-50"/>
      </g>
     </g>
    </g>
    <g id="xtick_12">
     <g id="line2d_23">
      <path clip-path="url(#p3d6b09eaa8)" d="M 347.863636 441 
L 347.863636 60.48 
" style="fill:none;stroke:#b0b0b0;stroke-linecap:square;stroke-opacity:0.4;stroke-width:0.8;"/>
     </g>
     <g id="line2d_24">
      <g>
       <use style="stroke:#000000;stroke-width:0.8;" x="347.863636" xlink:href="#mea80f3518a" y="441"/>
      </g>
     </g>
     <g id="text_12">
      <!-- 13 -->
      <g transform="translate(341.501136 455.598437)scale(0.1 -0.1)">
       <use xlink:href="#DejaVuSans-49"/>
       <use x="63.623047" xlink:href="#DejaVuSans-51"/>
      </g>
     </g>
    </g>
    <g id="xtick_13">
     <g id="line2d_25">
      <path clip-path="url(#p3d6b09eaa8)" d="M 369 441 
L 369 60.48 
" style="fill:none;stroke:#b0b0b0;stroke-linecap:square;stroke-opacity:0.4;stroke-width:0.8;"/>
     </g>
     <g id="line2d_26">
      <g>
       <use style="stroke:#000000;stroke-width:0.8;" x="369" xlink:href="#mea80f3518a" y="441"/>
      </g>
     </g>
     <g id="text_13">
      <!-- 14 -->
      <g transform="translate(362.6375 455.598437)scale(0.1 -0.1)">
       <use xlink:href="#DejaVuSans-49"/>
       <use x="63.623047" xlink:href="#DejaVuSans-52"/>
      </g>
     </g>
    </g>
    <g id="xtick_14">
     <g id="line2d_27">
      <path clip-path="url(#p3d6b09eaa8)" d="M 390.136364 441 
L 390.136364 60.48 
" style="fill:none;stroke:#b0b0b0;stroke-linecap:square;stroke-opacity:0.4;stroke-width:0.8;"/>
     </g>
     <g id="line2d_28">
      <g>
       <use style="stroke:#000000;stroke-width:0.8;" x="390.136364" xlink:href="#mea80f3518a" y="441"/>
      </g>
     </g>
     <g id="text_14">
      <!-- 15 -->
      <g transform="translate(383.773864 455.598437)scale(0.1 -0.1)">
       <use xlink:href="#DejaVuSans-49"/>
       <use x="63.623047" xlink:href="#DejaVuSans-53"/>
      </g>
     </g>
    </g>
    <g id="xtick_15">
     <g id="line2d_29">
      <path clip-path="url(#p3d6b09eaa8)" d="M 411.272727 441 
L 411.272727 60.48 
" style="fill:none;stroke:#b0b0b0;stroke-linecap:square;stroke-opacity:0.4;stroke-width:0.8;"/>
     </g>
     <g id="line2d_30">
      <g>
       <use style="stroke:#000000;stroke-width:0.8;" x="411.272727" xlink:href="#mea80f3518a" y="441"/>
      </g>
     </g>
     <g id="text_15">
      <!-- 16 -->
      <g transform="translate(404.910227 455.598437)scale(0.1 -0.1)">
       <use xlink:href="#DejaVuSans-49"/>
       <use x="63.623047" xlink:href="#DejaVuSans-54"/>
      </g>
     </g>
    </g>
    <g id="xtick_16">
     <g id="line2d_31">
      <path clip-path="url(#p3d6b09eaa8)" d="M 432.409091 441 
L 432.409091 60.48 
" style="fill:none;stroke:#b0b0b0;stroke-linecap:square;stroke-opacity:0.4;stroke-width:0.8;"/>
     </g>
     <g id="line2d_32">
      <g>
       <use style="stroke:#000000;stroke-width:0.8;" x="432.409091" xlink:href="#mea80f3518a" y="441"/>
      </g>
     </g>
     <g id="text_16">
      <!-- 17 -->
      <g transform="translate(426.046591 455.598437)scale(0.1 -0.1)">
       <use xlink:href="#DejaVuSans-49"/>
       <use x="63.623047" xlink:href="#DejaVuSans-55"/>
      </g>
     </g>
    </g>
    <g id="xtick_17">
     <g id="line2d_33">
      <path clip-path="url(#p3d6b09eaa8)" d="M 453.545455 441 
L 453.545455 60.48 
" style="fill:none;stroke:#b0b0b0;stroke-linecap:square;stroke-opacity:0.4;stroke-width:0.8;"/>
     </g>
     <g id="line2d_34">
      <g>
       <use style="stroke:#000000;stroke-width:0.8;" x="453.545455" xlink:href="#mea80f3518a" y="441"/>
      </g>
     </g>
     <g id="text_17">
      <!-- 18 -->
      <g transform="translate(447.182955 455.598437)scale(0.1 -0.1)">
       <use xlink:href="#DejaVuSans-49"/>
       <use x="63.623047" xlink:href="#DejaVuSans-56"/>
      </g>
     </g>
    </g>
    <g id="xtick_18">
     <g id="line2d_35">
      <path clip-path="url(#p3d6b09eaa8)" d="M 474.681818 441 
L 474.681818 60.48 
" style="fill:none;stroke:#b0b0b0;stroke-linecap:square;stroke-opacity:0.4;stroke-width:0.8;"/>
     </g>
     <g id="line2d_36">
      <g>
       <use style="stroke:#000000;stroke-width:0.8;" x="474.681818" xlink:href="#mea80f3518a" y="441"/>
      </g>
     </g>
     <g id="text_18">
      <!-- 19 -->
      <g transform="translate(468.319318 455.598437)scale(0.1 -0.1)">
       <use xlink:href="#DejaVuSans-49"/>
       <use x="63.623047" xlink:href="#DejaVuSans-57"/>
      </g>
     </g>
    </g>
    <g id="xtick_19">
     <g id="line2d_37">
      <path clip-path="url(#p3d6b09eaa8)" d="M 495.818182 441 
L 495.818182 60.48 
" style="fill:none;stroke:#b0b0b0;stroke-linecap:square;stroke-opacity:0.4;stroke-width:0.8;"/>
     </g>
     <g id="line2d_38">
      <g>
       <use style="stroke:#000000;stroke-width:0.8;" x="495.818182" xlink:href="#mea80f3518a" y="441"/>
      </g>
     </g>
     <g id="text_19">
      <!-- 20 -->
      <g transform="translate(489.455682 455.598437)scale(0.1 -0.1)">
       <use xlink:href="#DejaVuSans-50"/>
       <use x="63.623047" xlink:href="#DejaVuSans-48"/>
      </g>
     </g>
    </g>
    <g id="xtick_20">
     <g id="line2d_39">
      <path clip-path="url(#p3d6b09eaa8)" d="M 516.954545 441 
L 516.954545 60.48 
" style="fill:none;stroke:#b0b0b0;stroke-linecap:square;stroke-opacity:0.4;stroke-width:0.8;"/>
     </g>
     <g id="line2d_40">
      <g>
       <use style="stroke:#000000;stroke-width:0.8;" x="516.954545" xlink:href="#mea80f3518a" y="441"/>
      </g>
     </g>
     <g id="text_20">
      <!-- 21 -->
      <g transform="translate(510.592045 455.598437)scale(0.1 -0.1)">
       <use xlink:href="#DejaVuSans-50"/>
       <use x="63.623047" xlink:href="#DejaVuSans-49"/>
      </g>
     </g>
    </g>
    <g id="xtick_21">
     <g id="line2d_41">
      <path clip-path="url(#p3d6b09eaa8)" d="M 538.090909 441 
L 538.090909 60.48 
" style="fill:none;stroke:#b0b0b0;stroke-linecap:square;stroke-opacity:0.4;stroke-width:0.8;"/>
     </g>
     <g id="line2d_42">
      <g>
       <use style="stroke:#000000;stroke-width:0.8;" x="538.090909" xlink:href="#mea80f3518a" y="441"/>
      </g>
     </g>
     <g id="text_21">
      <!-- 22 -->
      <g transform="translate(531.728409 455.598437)scale(0.1 -0.1)">
       <use xlink:href="#DejaVuSans-50"/>
       <use x="63.623047" xlink:href="#DejaVuSans-50"/>
      </g>
     </g>
    </g>
    <g id="xtick_22">
     <g id="line2d_43">
      <path clip-path="url(#p3d6b09eaa8)" d="M 559.227273 441 
L 559.227273 60.48 
" style="fill:none;stroke:#b0b0b0;stroke-linecap:square;stroke-opacity:0.4;stroke-width:0.8;"/>
     </g>
     <g id="line2d_44">
      <g>
       <use style="stroke:#000000;stroke-width:0.8;" x="559.227273" xlink:href="#mea80f3518a" y="441"/>
      </g>
     </g>
     <g id="text_22">
      <!-- 23 -->
      <g transform="translate(552.864773 455.598437)scale(0.1 -0.1)">
       <use xlink:href="#DejaVuSans-50"/>
       <use x="63.623047" xlink:href="#DejaVuSans-51"/>
      </g>
     </g>
    </g>
    <g id="xtick_23">
     <g id="line2d_45">
      <path clip-path="url(#p3d6b09eaa8)" d="M 580.363636 441 
L 580.363636 60.48 
" style="fill:none;stroke:#b0b0b0;stroke-linecap:square;stroke-opacity:0.4;stroke-width:0.8;"/>
     </g>
     <g id="line2d_46">
      <g>
       <use style="stroke:#000000;stroke-width:0.8;" x="580.363636" xlink:href="#mea80f3518a" y="441"/>
      </g>
     </g>
     <g id="text_23">
      <!-- 24 -->
      <g transform="translate(574.001136 455.598437)scale(0.1 -0.1)">
       <use xlink:href="#DejaVuSans-50"/>
       <use x="63.623047" xlink:href="#DejaVuSans-52"/>
      </g>
     </g>
    </g>
    <g id="xtick_24">
     <g id="line2d_47">
      <path clip-path="url(#p3d6b09eaa8)" d="M 601.5 441 
L 601.5 60.48 
" style="fill:none;stroke:#b0b0b0;stroke-linecap:square;stroke-opacity:0.4;stroke-width:0.8;"/>
     </g>
     <g id="line2d_48">
      <g>
       <use style="stroke:#000000;stroke-width:0.8;" x="601.5" xlink:href="#mea80f3518a" y="441"/>
      </g>
     </g>
     <g id="text_24">
      <!-- 25 -->
      <g transform="translate(595.1375 455.598437)scale(0.1 -0.1)">
       <use xlink:href="#DejaVuSans-50"/>
       <use x="63.623047" xlink:href="#DejaVuSans-53"/>
      </g>
     </g>
    </g>
    <g id="xtick_25">
     <g id="line2d_49">
      <path clip-path="url(#p3d6b09eaa8)" d="M 622.636364 441 
L 622.636364 60.48 
" style="fill:none;stroke:#b0b0b0;stroke-linecap:square;stroke-opacity:0.4;stroke-width:0.8;"/>
     </g>
     <g id="line2d_50">
      <g>
       <use style="stroke:#000000;stroke-width:0.8;" x="622.636364" xlink:href="#mea80f3518a" y="441"/>
      </g>
     </g>
     <g id="text_25">
      <!-- 26 -->
      <g transform="translate(616.273864 455.598437)scale(0.1 -0.1)">
       <use xlink:href="#DejaVuSans-50"/>
       <use x="63.623047" xlink:href="#DejaVuSans-54"/>
      </g>
     </g>
    </g>
    <g id="text_26">
     <!-- 时间 -->
     <defs>
      <path d="M 47.46875 66.265625 
L 76.375 66.265625 
L 76.375 82.671875 
L 90.328125 82.671875 
L 90.328125 66.265625 
L 98.53125 66.265625 
L 98.53125 53.265625 
L 90.328125 53.265625 
L 90.328125 4.9375 
Q 90.328125 -3.265625 86.671875 -7.46875 
Q 83.015625 -11.671875 76.53125 -11.90625 
Q 70.0625 -12.15625 57.328125 -12.15625 
Q 55.765625 -3.265625 54 2.09375 
Q 67.875 1.703125 69.234375 1.703125 
Q 76.375 1.703125 76.375 9.125 
L 76.375 53.265625 
L 47.46875 53.265625 
z
M 6.15625 -7.765625 
L 6.15625 76.515625 
L 44.625 76.515625 
L 44.625 -7.171875 
L 31.734375 -7.171875 
L 31.734375 -0.4375 
L 19.046875 -0.4375 
L 19.046875 -7.765625 
z
M 31.734375 63.625 
L 19.046875 63.625 
L 19.046875 44.28125 
L 31.734375 44.28125 
z
M 19.046875 12.453125 
L 31.734375 12.453125 
L 31.734375 31.78125 
L 19.046875 31.78125 
z
M 56.0625 48 
Q 62.703125 39.703125 73.640625 24.359375 
L 61.8125 16.65625 
Q 52.9375 31.390625 45.90625 41.265625 
z
" id="MicrosoftYaHei-Bold-26102"/>
      <path d="M 17 79.046875 
L 29.78125 83.546875 
Q 34.375 76.3125 39.15625 67.71875 
L 25.59375 62.546875 
Q 21.1875 71.828125 17 79.046875 
z
M 94.625 5.421875 
Q 94.625 -1.65625 92.25 -5.90625 
Q 89.890625 -10.15625 84.71875 -11.5 
Q 79.546875 -12.84375 61.71875 -12.84375 
Q 60.546875 -5.609375 58.59375 0.828125 
Q 64.84375 0.4375 74.515625 0.4375 
Q 81.0625 0.4375 81.0625 6.203125 
L 81.0625 66.84375 
L 42.484375 66.84375 
L 42.484375 78.859375 
L 94.625 78.859375 
z
M 5.375 70.65625 
L 18.953125 70.65625 
L 18.953125 -12.546875 
L 5.375 -12.546875 
z
M 27.9375 58.9375 
L 71.578125 58.9375 
L 71.578125 7.5625 
L 40.234375 7.5625 
L 40.234375 2.203125 
L 27.9375 2.203125 
z
M 59.28125 48 
L 40.234375 48 
L 40.234375 38.71875 
L 59.28125 38.71875 
z
M 59.28125 18.5 
L 59.28125 27.78125 
L 40.234375 27.78125 
L 40.234375 18.5 
z
" id="MicrosoftYaHei-Bold-38388"/>
     </defs>
     <g transform="translate(359 469.671875)scale(0.1 -0.1)">
      <use xlink:href="#MicrosoftYaHei-Bold-26102"/>
      <use x="100" xlink:href="#MicrosoftYaHei-Bold-38388"/>
     </g>
    </g>
   </g>
   <g id="matplotlib.axis_2">
    <g id="ytick_1">
     <g id="line2d_51">
      <path clip-path="url(#p3d6b09eaa8)" d="M 90 438.743953 
L 648 438.743953 
" style="fill:none;stroke:#b0b0b0;stroke-linecap:square;stroke-opacity:0.4;stroke-width:0.8;"/>
     </g>
     <g id="line2d_52">
      <defs>
       <path d="M 0 0 
L -3.5 0 
" id="m730345b9df" style="stroke:#000000;stroke-width:0.8;"/>
      </defs>
      <g>
       <use style="stroke:#000000;stroke-width:0.8;" x="90" xlink:href="#m730345b9df" y="438.743953"/>
      </g>
     </g>
     <g id="text_27">
      <!-- 4 -->
      <g transform="translate(76.6375 442.543171)scale(0.1 -0.1)">
       <use xlink:href="#DejaVuSans-52"/>
      </g>
     </g>
    </g>
    <g id="ytick_2">
     <g id="line2d_53">
      <path clip-path="url(#p3d6b09eaa8)" d="M 90 423.703636 
L 648 423.703636 
" style="fill:none;stroke:#b0b0b0;stroke-linecap:square;stroke-opacity:0.4;stroke-width:0.8;"/>
     </g>
     <g id="line2d_54">
      <g>
       <use style="stroke:#000000;stroke-width:0.8;" x="90" xlink:href="#m730345b9df" y="423.703636"/>
      </g>
     </g>
     <g id="text_28">
      <!-- 5 -->
      <g transform="translate(76.6375 427.502855)scale(0.1 -0.1)">
       <use xlink:href="#DejaVuSans-53"/>
      </g>
     </g>
    </g>
    <g id="ytick_3">
     <g id="line2d_55">
      <path clip-path="url(#p3d6b09eaa8)" d="M 90 408.66332 
L 648 408.66332 
" style="fill:none;stroke:#b0b0b0;stroke-linecap:square;stroke-opacity:0.4;stroke-width:0.8;"/>
     </g>
     <g id="line2d_56">
      <g>
       <use style="stroke:#000000;stroke-width:0.8;" x="90" xlink:href="#m730345b9df" y="408.66332"/>
      </g>
     </g>
     <g id="text_29">
      <!-- 6 -->
      <g transform="translate(76.6375 412.462539)scale(0.1 -0.1)">
       <use xlink:href="#DejaVuSans-54"/>
      </g>
     </g>
    </g>
    <g id="ytick_4">
     <g id="line2d_57">
      <path clip-path="url(#p3d6b09eaa8)" d="M 90 393.623004 
L 648 393.623004 
" style="fill:none;stroke:#b0b0b0;stroke-linecap:square;stroke-opacity:0.4;stroke-width:0.8;"/>
     </g>
     <g id="line2d_58">
      <g>
       <use style="stroke:#000000;stroke-width:0.8;" x="90" xlink:href="#m730345b9df" y="393.623004"/>
      </g>
     </g>
     <g id="text_30">
      <!-- 7 -->
      <g transform="translate(76.6375 397.422223)scale(0.1 -0.1)">
       <use xlink:href="#DejaVuSans-55"/>
      </g>
     </g>
    </g>
    <g id="ytick_5">
     <g id="line2d_59">
      <path clip-path="url(#p3d6b09eaa8)" d="M 90 378.582688 
L 648 378.582688 
" style="fill:none;stroke:#b0b0b0;stroke-linecap:square;stroke-opacity:0.4;stroke-width:0.8;"/>
     </g>
     <g id="line2d_60">
      <g>
       <use style="stroke:#000000;stroke-width:0.8;" x="90" xlink:href="#m730345b9df" y="378.582688"/>
      </g>
     </g>
     <g id="text_31">
      <!-- 8 -->
      <g transform="translate(76.6375 382.381906)scale(0.1 -0.1)">
       <use xlink:href="#DejaVuSans-56"/>
      </g>
     </g>
    </g>
    <g id="ytick_6">
     <g id="line2d_61">
      <path clip-path="url(#p3d6b09eaa8)" d="M 90 363.542372 
L 648 363.542372 
" style="fill:none;stroke:#b0b0b0;stroke-linecap:square;stroke-opacity:0.4;stroke-width:0.8;"/>
     </g>
     <g id="line2d_62">
      <g>
       <use style="stroke:#000000;stroke-width:0.8;" x="90" xlink:href="#m730345b9df" y="363.542372"/>
      </g>
     </g>
     <g id="text_32">
      <!-- 9 -->
      <g transform="translate(76.6375 367.34159)scale(0.1 -0.1)">
       <use xlink:href="#DejaVuSans-57"/>
      </g>
     </g>
    </g>
    <g id="ytick_7">
     <g id="line2d_63">
      <path clip-path="url(#p3d6b09eaa8)" d="M 90 348.502055 
L 648 348.502055 
" style="fill:none;stroke:#b0b0b0;stroke-linecap:square;stroke-opacity:0.4;stroke-width:0.8;"/>
     </g>
     <g id="line2d_64">
      <g>
       <use style="stroke:#000000;stroke-width:0.8;" x="90" xlink:href="#m730345b9df" y="348.502055"/>
      </g>
     </g>
     <g id="text_33">
      <!-- 10 -->
      <g transform="translate(70.275 352.301274)scale(0.1 -0.1)">
       <use xlink:href="#DejaVuSans-49"/>
       <use x="63.623047" xlink:href="#DejaVuSans-48"/>
      </g>
     </g>
    </g>
    <g id="ytick_8">
     <g id="line2d_65">
      <path clip-path="url(#p3d6b09eaa8)" d="M 90 333.461739 
L 648 333.461739 
" style="fill:none;stroke:#b0b0b0;stroke-linecap:square;stroke-opacity:0.4;stroke-width:0.8;"/>
     </g>
     <g id="line2d_66">
      <g>
       <use style="stroke:#000000;stroke-width:0.8;" x="90" xlink:href="#m730345b9df" y="333.461739"/>
      </g>
     </g>
     <g id="text_34">
      <!-- 11 -->
      <g transform="translate(70.275 337.260958)scale(0.1 -0.1)">
       <use xlink:href="#DejaVuSans-49"/>
       <use x="63.623047" xlink:href="#DejaVuSans-49"/>
      </g>
     </g>
    </g>
    <g id="ytick_9">
     <g id="line2d_67">
      <path clip-path="url(#p3d6b09eaa8)" d="M 90 318.421423 
L 648 318.421423 
" style="fill:none;stroke:#b0b0b0;stroke-linecap:square;stroke-opacity:0.4;stroke-width:0.8;"/>
     </g>
     <g id="line2d_68">
      <g>
       <use style="stroke:#000000;stroke-width:0.8;" x="90" xlink:href="#m730345b9df" y="318.421423"/>
      </g>
     </g>
     <g id="text_35">
      <!-- 12 -->
      <g transform="translate(70.275 322.220642)scale(0.1 -0.1)">
       <use xlink:href="#DejaVuSans-49"/>
       <use x="63.623047" xlink:href="#DejaVuSans-50"/>
      </g>
     </g>
    </g>
    <g id="ytick_10">
     <g id="line2d_69">
      <path clip-path="url(#p3d6b09eaa8)" d="M 90 303.381107 
L 648 303.381107 
" style="fill:none;stroke:#b0b0b0;stroke-linecap:square;stroke-opacity:0.4;stroke-width:0.8;"/>
     </g>
     <g id="line2d_70">
      <g>
       <use style="stroke:#000000;stroke-width:0.8;" x="90" xlink:href="#m730345b9df" y="303.381107"/>
      </g>
     </g>
     <g id="text_36">
      <!-- 13 -->
      <g transform="translate(70.275 307.180325)scale(0.1 -0.1)">
       <use xlink:href="#DejaVuSans-49"/>
       <use x="63.623047" xlink:href="#DejaVuSans-51"/>
      </g>
     </g>
    </g>
    <g id="ytick_11">
     <g id="line2d_71">
      <path clip-path="url(#p3d6b09eaa8)" d="M 90 288.340791 
L 648 288.340791 
" style="fill:none;stroke:#b0b0b0;stroke-linecap:square;stroke-opacity:0.4;stroke-width:0.8;"/>
     </g>
     <g id="line2d_72">
      <g>
       <use style="stroke:#000000;stroke-width:0.8;" x="90" xlink:href="#m730345b9df" y="288.340791"/>
      </g>
     </g>
     <g id="text_37">
      <!-- 14 -->
      <g transform="translate(70.275 292.140009)scale(0.1 -0.1)">
       <use xlink:href="#DejaVuSans-49"/>
       <use x="63.623047" xlink:href="#DejaVuSans-52"/>
      </g>
     </g>
    </g>
    <g id="ytick_12">
     <g id="line2d_73">
      <path clip-path="url(#p3d6b09eaa8)" d="M 90 273.300474 
L 648 273.300474 
" style="fill:none;stroke:#b0b0b0;stroke-linecap:square;stroke-opacity:0.4;stroke-width:0.8;"/>
     </g>
     <g id="line2d_74">
      <g>
       <use style="stroke:#000000;stroke-width:0.8;" x="90" xlink:href="#m730345b9df" y="273.300474"/>
      </g>
     </g>
     <g id="text_38">
      <!-- 15 -->
      <g transform="translate(70.275 277.099693)scale(0.1 -0.1)">
       <use xlink:href="#DejaVuSans-49"/>
       <use x="63.623047" xlink:href="#DejaVuSans-53"/>
      </g>
     </g>
    </g>
    <g id="ytick_13">
     <g id="line2d_75">
      <path clip-path="url(#p3d6b09eaa8)" d="M 90 258.260158 
L 648 258.260158 
" style="fill:none;stroke:#b0b0b0;stroke-linecap:square;stroke-opacity:0.4;stroke-width:0.8;"/>
     </g>
     <g id="line2d_76">
      <g>
       <use style="stroke:#000000;stroke-width:0.8;" x="90" xlink:href="#m730345b9df" y="258.260158"/>
      </g>
     </g>
     <g id="text_39">
      <!-- 16 -->
      <g transform="translate(70.275 262.059377)scale(0.1 -0.1)">
       <use xlink:href="#DejaVuSans-49"/>
       <use x="63.623047" xlink:href="#DejaVuSans-54"/>
      </g>
     </g>
    </g>
    <g id="ytick_14">
     <g id="line2d_77">
      <path clip-path="url(#p3d6b09eaa8)" d="M 90 243.219842 
L 648 243.219842 
" style="fill:none;stroke:#b0b0b0;stroke-linecap:square;stroke-opacity:0.4;stroke-width:0.8;"/>
     </g>
     <g id="line2d_78">
      <g>
       <use style="stroke:#000000;stroke-width:0.8;" x="90" xlink:href="#m730345b9df" y="243.219842"/>
      </g>
     </g>
     <g id="text_40">
      <!-- 17 -->
      <g transform="translate(70.275 247.019061)scale(0.1 -0.1)">
       <use xlink:href="#DejaVuSans-49"/>
       <use x="63.623047" xlink:href="#DejaVuSans-55"/>
      </g>
     </g>
    </g>
    <g id="ytick_15">
     <g id="line2d_79">
      <path clip-path="url(#p3d6b09eaa8)" d="M 90 228.179526 
L 648 228.179526 
" style="fill:none;stroke:#b0b0b0;stroke-linecap:square;stroke-opacity:0.4;stroke-width:0.8;"/>
     </g>
     <g id="line2d_80">
      <g>
       <use style="stroke:#000000;stroke-width:0.8;" x="90" xlink:href="#m730345b9df" y="228.179526"/>
      </g>
     </g>
     <g id="text_41">
      <!-- 18 -->
      <g transform="translate(70.275 231.978744)scale(0.1 -0.1)">
       <use xlink:href="#DejaVuSans-49"/>
       <use x="63.623047" xlink:href="#DejaVuSans-56"/>
      </g>
     </g>
    </g>
    <g id="ytick_16">
     <g id="line2d_81">
      <path clip-path="url(#p3d6b09eaa8)" d="M 90 213.139209 
L 648 213.139209 
" style="fill:none;stroke:#b0b0b0;stroke-linecap:square;stroke-opacity:0.4;stroke-width:0.8;"/>
     </g>
     <g id="line2d_82">
      <g>
       <use style="stroke:#000000;stroke-width:0.8;" x="90" xlink:href="#m730345b9df" y="213.139209"/>
      </g>
     </g>
     <g id="text_42">
      <!-- 19 -->
      <g transform="translate(70.275 216.938428)scale(0.1 -0.1)">
       <use xlink:href="#DejaVuSans-49"/>
       <use x="63.623047" xlink:href="#DejaVuSans-57"/>
      </g>
     </g>
    </g>
    <g id="ytick_17">
     <g id="line2d_83">
      <path clip-path="url(#p3d6b09eaa8)" d="M 90 198.098893 
L 648 198.098893 
" style="fill:none;stroke:#b0b0b0;stroke-linecap:square;stroke-opacity:0.4;stroke-width:0.8;"/>
     </g>
     <g id="line2d_84">
      <g>
       <use style="stroke:#000000;stroke-width:0.8;" x="90" xlink:href="#m730345b9df" y="198.098893"/>
      </g>
     </g>
     <g id="text_43">
      <!-- 20 -->
      <g transform="translate(70.275 201.898112)scale(0.1 -0.1)">
       <use xlink:href="#DejaVuSans-50"/>
       <use x="63.623047" xlink:href="#DejaVuSans-48"/>
      </g>
     </g>
    </g>
    <g id="ytick_18">
     <g id="line2d_85">
      <path clip-path="url(#p3d6b09eaa8)" d="M 90 183.058577 
L 648 183.058577 
" style="fill:none;stroke:#b0b0b0;stroke-linecap:square;stroke-opacity:0.4;stroke-width:0.8;"/>
     </g>
     <g id="line2d_86">
      <g>
       <use style="stroke:#000000;stroke-width:0.8;" x="90" xlink:href="#m730345b9df" y="183.058577"/>
      </g>
     </g>
     <g id="text_44">
      <!-- 21 -->
      <g transform="translate(70.275 186.857796)scale(0.1 -0.1)">
       <use xlink:href="#DejaVuSans-50"/>
       <use x="63.623047" xlink:href="#DejaVuSans-49"/>
      </g>
     </g>
    </g>
    <g id="ytick_19">
     <g id="line2d_87">
      <path clip-path="url(#p3d6b09eaa8)" d="M 90 168.018261 
L 648 168.018261 
" style="fill:none;stroke:#b0b0b0;stroke-linecap:square;stroke-opacity:0.4;stroke-width:0.8;"/>
     </g>
     <g id="line2d_88">
      <g>
       <use style="stroke:#000000;stroke-width:0.8;" x="90" xlink:href="#m730345b9df" y="168.018261"/>
      </g>
     </g>
     <g id="text_45">
      <!-- 22 -->
      <g transform="translate(70.275 171.81748)scale(0.1 -0.1)">
       <use xlink:href="#DejaVuSans-50"/>
       <use x="63.623047" xlink:href="#DejaVuSans-50"/>
      </g>
     </g>
    </g>
    <g id="ytick_20">
     <g id="line2d_89">
      <path clip-path="url(#p3d6b09eaa8)" d="M 90 152.977945 
L 648 152.977945 
" style="fill:none;stroke:#b0b0b0;stroke-linecap:square;stroke-opacity:0.4;stroke-width:0.8;"/>
     </g>
     <g id="line2d_90">
      <g>
       <use style="stroke:#000000;stroke-width:0.8;" x="90" xlink:href="#m730345b9df" y="152.977945"/>
      </g>
     </g>
     <g id="text_46">
      <!-- 23 -->
      <g transform="translate(70.275 156.777163)scale(0.1 -0.1)">
       <use xlink:href="#DejaVuSans-50"/>
       <use x="63.623047" xlink:href="#DejaVuSans-51"/>
      </g>
     </g>
    </g>
    <g id="ytick_21">
     <g id="line2d_91">
      <path clip-path="url(#p3d6b09eaa8)" d="M 90 137.937628 
L 648 137.937628 
" style="fill:none;stroke:#b0b0b0;stroke-linecap:square;stroke-opacity:0.4;stroke-width:0.8;"/>
     </g>
     <g id="line2d_92">
      <g>
       <use style="stroke:#000000;stroke-width:0.8;" x="90" xlink:href="#m730345b9df" y="137.937628"/>
      </g>
     </g>
     <g id="text_47">
      <!-- 24 -->
      <g transform="translate(70.275 141.736847)scale(0.1 -0.1)">
       <use xlink:href="#DejaVuSans-50"/>
       <use x="63.623047" xlink:href="#DejaVuSans-52"/>
      </g>
     </g>
    </g>
    <g id="ytick_22">
     <g id="line2d_93">
      <path clip-path="url(#p3d6b09eaa8)" d="M 90 122.897312 
L 648 122.897312 
" style="fill:none;stroke:#b0b0b0;stroke-linecap:square;stroke-opacity:0.4;stroke-width:0.8;"/>
     </g>
     <g id="line2d_94">
      <g>
       <use style="stroke:#000000;stroke-width:0.8;" x="90" xlink:href="#m730345b9df" y="122.897312"/>
      </g>
     </g>
     <g id="text_48">
      <!-- 25 -->
      <g transform="translate(70.275 126.696531)scale(0.1 -0.1)">
       <use xlink:href="#DejaVuSans-50"/>
       <use x="63.623047" xlink:href="#DejaVuSans-53"/>
      </g>
     </g>
    </g>
    <g id="ytick_23">
     <g id="line2d_95">
      <path clip-path="url(#p3d6b09eaa8)" d="M 90 107.856996 
L 648 107.856996 
" style="fill:none;stroke:#b0b0b0;stroke-linecap:square;stroke-opacity:0.4;stroke-width:0.8;"/>
     </g>
     <g id="line2d_96">
      <g>
       <use style="stroke:#000000;stroke-width:0.8;" x="90" xlink:href="#m730345b9df" y="107.856996"/>
      </g>
     </g>
     <g id="text_49">
      <!-- 26 -->
      <g transform="translate(70.275 111.656215)scale(0.1 -0.1)">
       <use xlink:href="#DejaVuSans-50"/>
       <use x="63.623047" xlink:href="#DejaVuSans-54"/>
      </g>
     </g>
    </g>
    <g id="ytick_24">
     <g id="line2d_97">
      <path clip-path="url(#p3d6b09eaa8)" d="M 90 92.81668 
L 648 92.81668 
" style="fill:none;stroke:#b0b0b0;stroke-linecap:square;stroke-opacity:0.4;stroke-width:0.8;"/>
     </g>
     <g id="line2d_98">
      <g>
       <use style="stroke:#000000;stroke-width:0.8;" x="90" xlink:href="#m730345b9df" y="92.81668"/>
      </g>
     </g>
     <g id="text_50">
      <!-- 27 -->
      <g transform="translate(70.275 96.615899)scale(0.1 -0.1)">
       <use xlink:href="#DejaVuSans-50"/>
       <use x="63.623047" xlink:href="#DejaVuSans-55"/>
      </g>
     </g>
    </g>
    <g id="text_51">
     <!-- 温度 -->
     <defs>
      <path d="M 12.109375 82.078125 
Q 20.015625 76.3125 28.03125 69.96875 
L 19.046875 60.203125 
Q 12.015625 67.140625 4 73.578125 
z
M 32.328125 79.15625 
L 88.96875 79.15625 
L 88.96875 36.765625 
L 32.328125 36.765625 
z
M 76.953125 69 
L 44.34375 69 
L 44.34375 62.546875 
L 76.953125 62.546875 
z
M 76.953125 46.734375 
L 76.953125 53.171875 
L 44.34375 53.171875 
L 44.34375 46.734375 
z
M 9.375 56.59375 
Q 18.5625 49.75 24.8125 44.28125 
L 16.015625 33.734375 
Q 8.203125 41.15625 1.375 47.3125 
z
M 20.796875 1.21875 
L 28.21875 1.21875 
L 28.21875 31.109375 
L 93.171875 31.109375 
L 93.171875 1.21875 
L 98.828125 1.21875 
L 98.828125 -9.125 
L 20.796875 -9.125 
z
M 57.125 1.21875 
L 64.265625 1.21875 
L 64.265625 20.953125 
L 57.125 20.953125 
z
M 40.328125 1.21875 
L 47.46875 1.21875 
L 47.46875 20.953125 
L 40.328125 20.953125 
z
M 81.0625 20.953125 
L 73.921875 20.953125 
L 73.921875 1.21875 
L 81.0625 1.21875 
z
M 10.9375 29.046875 
Q 17.484375 26.515625 23.25 24.75 
L 15.4375 -13.53125 
Q 8.6875 -11.1875 2.34375 -9.8125 
Q 7.234375 8.9375 10.9375 29.046875 
z
" id="MicrosoftYaHei-Bold-28201"/>
      <path d="M 88.375 26.515625 
L 88.375 15.96875 
Q 80.5625 6.984375 72.75 1.515625 
Q 83.5 -0.53125 98.53125 -1.03125 
Q 95.609375 -6.6875 92.78125 -12.84375 
Q 71.1875 -10.203125 58.109375 -5.515625 
Q 44.140625 -10.203125 23.34375 -13.625 
Q 20.90625 -8.15625 17 -2.78125 
Q 32.8125 -2 45.125 1.21875 
Q 37.015625 7.078125 30.28125 15.96875 
L 24.03125 15.96875 
L 24.03125 26.515625 
z
M 20.703125 38.71875 
Q 20.90625 2.09375 10.9375 -13.8125 
Q 5.5625 -8.640625 0.296875 -4.640625 
Q 8.59375 10.890625 8.203125 40.484375 
L 8.203125 74.5625 
L 47.078125 74.5625 
Q 46 77.390625 44.234375 81.390625 
L 60.453125 83.734375 
Q 62.203125 79.25 63.96875 74.5625 
L 97.75 74.5625 
L 97.75 63.625 
L 20.703125 63.625 
z
M 22.859375 57.5625 
L 33.5 57.5625 
L 33.5 61.671875 
L 46 61.671875 
L 46 57.5625 
L 70.21875 57.5625 
L 70.21875 61.671875 
L 82.71875 61.671875 
L 82.71875 57.5625 
L 96 57.5625 
L 96 47.015625 
L 82.71875 47.015625 
L 82.71875 31.109375 
L 33.5 31.109375 
L 33.5 47.015625 
L 22.859375 47.015625 
z
M 58.6875 5.90625 
Q 67.578125 10.015625 73.828125 15.96875 
L 44.140625 15.96875 
Q 50.390625 9.71875 58.6875 5.90625 
z
M 70.21875 41.0625 
L 70.21875 47.015625 
L 46 47.015625 
L 46 41.0625 
z
" id="MicrosoftYaHei-Bold-24230"/>
     </defs>
     <g transform="translate(63.789063 260.74)rotate(-90)scale(0.1 -0.1)">
      <use xlink:href="#MicrosoftYaHei-Bold-28201"/>
      <use x="100" xlink:href="#MicrosoftYaHei-Bold-24230"/>
     </g>
    </g>
   </g>
   <g id="line2d_99">
    <path clip-path="url(#p3d6b09eaa8)" d="M 115.363636 273.300474 
L 157.636364 303.381107 
L 199.909091 288.340791 
L 242.181818 423.703636 
L 284.454545 243.219842 
L 326.727273 198.098893 
L 369 122.897312 
L 411.272727 107.856996 
L 453.545455 107.856996 
L 495.818182 92.81668 
L 538.090909 168.018261 
L 580.363636 228.179526 
L 622.636364 273.300474 
" style="fill:none;stroke:#ff0000;stroke-linecap:square;stroke-width:1.5;"/>
   </g>
   <g id="line2d_100">
    <path clip-path="url(#p3d6b09eaa8)" d="M 115.363636 303.381107 
L 157.636364 318.421423 
L 199.909091 243.219842 
L 242.181818 258.260158 
L 284.454545 273.300474 
L 326.727273 228.179526 
L 369 152.977945 
L 411.272727 137.937628 
L 453.545455 92.81668 
L 495.818182 77.776364 
L 538.090909 168.018261 
L 580.363636 213.139209 
L 622.636364 122.897312 
" style="fill:none;stroke:#008000;stroke-linecap:square;stroke-width:1.5;"/>
   </g>
   <g id="patch_3">
    <path d="M 90 441 
L 90 60.48 
" style="fill:none;stroke:#000000;stroke-linecap:square;stroke-linejoin:miter;stroke-width:0.8;"/>
   </g>
   <g id="patch_4">
    <path d="M 648 441 
L 648 60.48 
" style="fill:none;stroke:#000000;stroke-linecap:square;stroke-linejoin:miter;stroke-width:0.8;"/>
   </g>
   <g id="patch_5">
    <path d="M 90 441 
L 648 441 
" style="fill:none;stroke:#000000;stroke-linecap:square;stroke-linejoin:miter;stroke-width:0.8;"/>
   </g>
   <g id="patch_6">
    <path d="M 90 60.48 
L 648 60.48 
" style="fill:none;stroke:#000000;stroke-linecap:square;stroke-linejoin:miter;stroke-width:0.8;"/>
   </g>
   <g id="text_52">
    <!-- 云主宰苍穹 -->
    <defs>
     <path d="M 12.5 77.78125 
L 88.28125 77.78125 
L 88.28125 64.3125 
L 12.5 64.3125 
z
M 3.515625 47.515625 
L 97.265625 47.515625 
L 97.265625 34.03125 
L 51.90625 34.03125 
Q 44.671875 23.53125 29.109375 6.390625 
Q 49.65625 6.546875 68.703125 7.5625 
L 55.46875 23.875 
L 67.1875 31 
Q 86.421875 9.328125 97.171875 -5.125 
L 84.375 -13.328125 
Q 82.234375 -10.109375 78.859375 -5.515625 
Q 21.34375 -7.421875 12.796875 -9.625 
L 6.546875 3.375 
Q 21.734375 15.828125 33.5 34.03125 
L 3.515625 34.03125 
z
" id="MicrosoftYaHei-Bold-20113"/>
     <path d="M 2.15625 3.765625 
L 42.578125 3.765625 
L 42.578125 22.015625 
L 12.5 22.015625 
L 12.5 34.71875 
L 42.578125 34.71875 
L 42.578125 52.390625 
L 7.8125 52.390625 
L 7.8125 65.28125 
L 45.65625 65.28125 
Q 42.390625 71.734375 38.28125 77.984375 
L 51.65625 84.03125 
Q 56.0625 77.59375 60.453125 69.671875 
L 51.03125 65.28125 
L 92.578125 65.28125 
L 92.578125 52.390625 
L 57.328125 52.390625 
L 57.328125 34.71875 
L 88.09375 34.71875 
L 88.09375 22.015625 
L 57.328125 22.015625 
L 57.328125 3.765625 
L 97.859375 3.765625 
L 97.859375 -9.328125 
L 2.15625 -9.328125 
z
" id="MicrosoftYaHei-Bold-20027"/>
     <path d="M 6.84375 12.9375 
L 42.78125 12.9375 
L 42.78125 20.171875 
L 2.046875 20.171875 
L 2.046875 31.78125 
L 25.78125 31.78125 
Q 23.34375 35.40625 21 38.8125 
L 28.90625 42.140625 
L 9.078125 42.140625 
L 9.078125 53.765625 
L 42.875 53.765625 
Q 41.796875 56.890625 40.71875 60.109375 
L 56.25 61.46875 
Q 56.9375 58.734375 58.109375 53.765625 
L 90.71875 53.765625 
L 90.71875 42.140625 
L 71.390625 42.140625 
Q 78.71875 38.625 78.90625 38.53125 
Q 76.265625 35.015625 73.921875 31.78125 
L 98.4375 31.78125 
L 98.4375 20.171875 
L 57.234375 20.171875 
L 57.234375 12.9375 
L 93.65625 12.9375 
L 93.65625 1.3125 
L 57.234375 1.3125 
L 57.234375 -13.53125 
L 42.78125 -13.53125 
L 42.78125 1.3125 
L 6.84375 1.3125 
z
M 39.9375 81.6875 
L 56.640625 83.25 
Q 58.203125 78.46875 59.578125 73.96875 
L 95.3125 73.96875 
L 95.3125 55.90625 
L 81.734375 55.90625 
L 81.734375 62.453125 
L 18.453125 62.453125 
L 18.453125 55.90625 
L 4.890625 55.90625 
L 4.890625 73.96875 
L 42.78125 73.96875 
Q 41.3125 78.375 39.9375 81.6875 
z
M 41.40625 31.78125 
L 58.59375 31.78125 
Q 61.8125 36.765625 64.9375 42.140625 
L 35.0625 42.140625 
Q 37.5 38.328125 41.40625 31.78125 
z
" id="MicrosoftYaHei-Bold-23472"/>
     <path d="M 82.90625 15.578125 
Q 90.4375 12.640625 95.703125 10.890625 
Q 93.453125 2.78125 91.890625 -1.421875 
Q 88.28125 -11.078125 76.859375 -11.078125 
L 30.5625 -11.078125 
Q 18.5625 -11.078125 18.5625 1.3125 
L 18.5625 29.34375 
Q 13.875 26.90625 8.6875 24.5625 
Q 4 33.546875 1.265625 37.546875 
Q 28.90625 47.3125 44.921875 61.578125 
L 60.9375 61.578125 
L 58.40625 59.125 
Q 75.484375 46.234375 98.34375 39.890625 
Q 95.90625 35.109375 92.578125 26.8125 
Q 84.578125 29.734375 77.4375 33.25 
Q 77.25 28.65625 76.765625 20.171875 
Q 75.78125 6.890625 63.09375 6.78125 
Q 57.234375 6.5 45.796875 6.59375 
Q 44.625 13.234375 43.265625 17.53125 
Q 49.3125 17.140625 58.203125 17.140625 
Q 62.796875 16.9375 63.671875 19.875 
Q 64.0625 22.515625 64.15625 24.265625 
L 31.640625 24.265625 
L 31.640625 6.6875 
Q 31.640625 0.4375 37.984375 0.4375 
L 73.828125 0.4375 
Q 79 0.4375 80.46875 6 
Q 81.640625 9.515625 82.90625 15.578125 
z
M 3.609375 75.734375 
L 23.046875 75.734375 
L 23.046875 82.953125 
L 36.53125 82.953125 
L 36.53125 75.734375 
L 64.15625 75.734375 
L 64.15625 82.953125 
L 77.640625 82.953125 
L 77.640625 75.734375 
L 98.25 75.734375 
L 98.25 64.203125 
L 77.640625 64.203125 
L 77.640625 57.375 
L 64.15625 57.375 
L 64.15625 64.203125 
L 36.53125 64.203125 
L 36.53125 57.375 
L 23.046875 57.375 
L 23.046875 64.203125 
L 3.609375 64.203125 
z
M 50.6875 51.21875 
Q 42.578125 43.21875 29.984375 35.6875 
L 72.75 35.6875 
Q 60.359375 42.4375 50.6875 51.21875 
z
" id="MicrosoftYaHei-Bold-33485"/>
     <path d="M 59.671875 64.109375 
Q 67 62.453125 94.921875 55.8125 
L 91.796875 46.625 
Q 89.15625 47.40625 85.0625 48.578125 
L 85.0625 24.75 
L 25.484375 24.75 
L 24.90625 18.796875 
L 90.828125 18.796875 
Q 90.71875 17.71875 89.359375 2.09375 
Q 88.28125 -9.03125 76.171875 -10.796875 
Q 71.296875 -11.671875 47.859375 -11.765625 
Q 46.390625 -3.5625 45.515625 0.046875 
Q 57.8125 -0.4375 68.84375 -0.34375 
Q 76.265625 -0.53125 76.46875 8.734375 
L 9.765625 8.734375 
L 13.28125 34.8125 
L 71.484375 34.8125 
L 71.484375 40.578125 
L 13.484375 40.578125 
L 13.484375 48.6875 
L 8.296875 47.40625 
Q 6.453125 52.203125 4.296875 55.90625 
Q 25.296875 59.71875 40.328125 64.203125 
L 44.921875 56.390625 
Q 32.90625 53.46875 21.390625 50.640625 
L 77.546875 50.640625 
Q 68.84375 52.875 56.15625 56.203125 
z
M 40.046875 81.390625 
L 56.25 83.453125 
Q 57.03125 80.609375 58.203125 75.640625 
L 95.3125 75.640625 
L 95.3125 59.8125 
L 82.421875 59.8125 
L 82.421875 65.09375 
L 17.78125 65.09375 
L 17.78125 59.8125 
L 4.890625 59.8125 
L 4.890625 75.640625 
L 41.890625 75.640625 
Q 40.828125 79.046875 40.046875 81.390625 
z
" id="MicrosoftYaHei-Bold-31353"/>
    </defs>
    <g style="fill:#808080;opacity:0.5;" transform="translate(43.170455 488.899122)scale(0.1 -0.1)">
     <use xlink:href="#MicrosoftYaHei-Bold-20113"/>
     <use x="100" xlink:href="#MicrosoftYaHei-Bold-20027"/>
     <use x="200" xlink:href="#MicrosoftYaHei-Bold-23472"/>
     <use x="300" xlink:href="#MicrosoftYaHei-Bold-33485"/>
     <use x="400" xlink:href="#MicrosoftYaHei-Bold-31353"/>
    </g>
   </g>
   <g id="text_53">
    <!-- 一天中室内温度值变化 -->
    <defs>
     <path d="M 2.9375 42.4375 
L 97.265625 42.4375 
L 97.265625 27.984375 
L 2.9375 27.984375 
z
" id="MicrosoftYaHei-Bold-19968"/>
     <path d="M 2.640625 46.34375 
L 41.0625 46.34375 
Q 42.28125 54.296875 42.625 64.3125 
L 8.015625 64.3125 
L 8.015625 77.59375 
L 92.390625 77.59375 
L 92.390625 64.3125 
L 56.890625 64.3125 
Q 56.5 55.765625 55.8125 46.34375 
L 97.359375 46.34375 
L 97.359375 32.859375 
L 60.015625 32.859375 
Q 70.796875 8.203125 98.25 0.140625 
Q 94.234375 -4.34375 86.921875 -13.71875 
Q 61.140625 -2.875 49.421875 24.265625 
Q 40.71875 1.953125 12.59375 -13.234375 
Q 8.796875 -8.34375 1.5625 -0.734375 
Q 32.8125 13.421875 38.03125 32.859375 
L 2.640625 32.859375 
z
" id="MicrosoftYaHei-Bold-22825"/>
     <path d="M 42.484375 83.453125 
L 57.328125 83.453125 
L 57.328125 66.15625 
L 93.75 66.15625 
L 93.75 11.375 
L 79.296875 11.375 
L 79.296875 18.109375 
L 57.328125 18.109375 
L 57.328125 -13.328125 
L 42.484375 -13.328125 
L 42.484375 18.109375 
L 20.515625 18.109375 
L 20.515625 11.078125 
L 6.0625 11.078125 
L 6.0625 66.15625 
L 42.484375 66.15625 
z
M 79.296875 52.6875 
L 57.328125 52.6875 
L 57.328125 31.59375 
L 79.296875 31.59375 
z
M 20.515625 31.59375 
L 42.484375 31.59375 
L 42.484375 52.6875 
L 20.515625 52.6875 
z
" id="MicrosoftYaHei-Bold-20013"/>
     <path d="M 4.203125 51.03125 
L 4.203125 74.5625 
L 42.78125 74.5625 
Q 40.921875 78.65625 39.546875 81.6875 
L 56.546875 83.453125 
Q 58.015625 79.828125 59.859375 74.5625 
L 96 74.5625 
L 96 51.03125 
L 83.984375 51.03125 
L 83.984375 63.421875 
L 16.21875 63.421875 
L 16.21875 51.03125 
z
M 58.296875 44.09375 
L 62.5 47.015625 
L 47.65625 47.015625 
Q 40.71875 42.234375 33.5 37.359375 
Q 50.09375 37.75 67.28125 38.234375 
Q 62.796875 41.15625 58.296875 44.09375 
z
M 80.859375 57.5625 
L 80.859375 47.015625 
L 72.5625 47.015625 
Q 82.125 41.265625 95.125 33.34375 
L 87.890625 24.265625 
Q 84.671875 26.421875 81.546875 28.65625 
Q 68.953125 28.265625 57.125 27.984375 
L 57.125 21.140625 
L 90.140625 21.140625 
L 90.140625 9.234375 
L 57.125 9.234375 
L 57.125 2.59375 
L 96.296875 2.59375 
L 96.296875 -9.71875 
L 4 -9.71875 
L 4 2.59375 
L 42.96875 2.59375 
L 42.96875 9.234375 
L 10.0625 9.234375 
L 10.0625 21.140625 
L 42.96875 21.140625 
L 42.96875 27.484375 
Q 23.34375 27.09375 14.453125 25.828125 
L 9.859375 35.890625 
Q 17.484375 39.40625 28.90625 47.015625 
L 19.34375 47.015625 
L 19.34375 57.5625 
z
" id="MicrosoftYaHei-Bold-23460"/>
     <path d="M 7.625 67.921875 
L 43.84375 67.921875 
Q 44.09375 76.265625 44.140625 83.640625 
L 56.9375 83.640625 
Q 56.9375 75.046875 56.78125 67.921875 
L 92.578125 67.921875 
L 92.578125 4.15625 
Q 92.578125 -3.171875 89.234375 -7.046875 
Q 85.890625 -10.9375 79.4375 -11.46875 
Q 73 -12.015625 61.71875 -11.765625 
Q 60.640625 -6.203125 58.796875 1.03125 
Q 65.328125 0.53125 71.484375 0.53125 
Q 74.859375 0.53125 76.21875 0.96875 
Q 77.59375 1.421875 78.4375 2.90625 
Q 79.296875 4.390625 79.296875 6.78125 
L 79.296875 55.125 
L 56.453125 55.125 
Q 55.859375 47.3125 54.734375 41.65625 
Q 64.84375 34.328125 78.609375 23.09375 
L 68.75 13.234375 
Q 62.25 19.921875 50.09375 30.671875 
Q 43.84375 20.0625 31.453125 11.859375 
Q 26.46875 17.71875 21.390625 22.125 
Q 42.1875 34.625 43.453125 55.125 
L 20.90625 55.125 
L 20.90625 -12.546875 
L 7.625 -12.546875 
z
" id="MicrosoftYaHei-Bold-20869"/>
     <path d="M 25.59375 0.046875 
L 32.8125 0.046875 
L 32.8125 58.25 
L 55.5625 58.25 
L 55.5625 64.015625 
L 30.46875 64.015625 
L 30.46875 74.953125 
L 55.5625 74.953125 
L 55.5625 82.28125 
L 68.453125 82.28125 
L 68.453125 74.953125 
L 96.484375 74.953125 
L 96.484375 64.015625 
L 68.453125 64.015625 
L 68.453125 58.25 
L 92 58.25 
L 92 0.046875 
L 98.828125 0.046875 
L 98.828125 -10.890625 
L 25.59375 -10.890625 
z
M 17.578125 83.546875 
L 30.46875 80.125 
Q 26.765625 68.40625 22.171875 57.28125 
L 22.171875 -13.328125 
L 9.765625 -13.328125 
L 9.765625 31.59375 
Q 7.125 26.8125 4.296875 22.21875 
Q 3.125 29.9375 1.078125 40.484375 
Q 10.546875 59.421875 17.578125 83.546875 
z
M 45.125 28.953125 
L 79.6875 28.953125 
L 79.6875 34.03125 
L 45.125 34.03125 
z
M 45.125 14.5 
L 79.6875 14.5 
L 79.6875 19.578125 
L 45.125 19.578125 
z
M 79.6875 48.484375 
L 45.125 48.484375 
L 45.125 43.40625 
L 79.6875 43.40625 
z
M 45.125 0.046875 
L 79.6875 0.046875 
L 79.6875 5.125 
L 45.125 5.125 
z
" id="MicrosoftYaHei-Bold-20540"/>
     <path d="M 3.609375 72.125 
L 42.71875 72.125 
L 39.453125 80.125 
L 53.515625 83.640625 
L 58.453125 72.125 
L 96.484375 72.125 
L 96.484375 60.59375 
L 67.96875 60.59375 
L 67.96875 38.03125 
L 55.46875 38.03125 
L 55.46875 60.59375 
L 44.53125 60.59375 
L 44.53125 38.03125 
L 32.03125 38.03125 
L 32.03125 60.59375 
L 3.609375 60.59375 
z
M 23.25 59.03125 
L 31.546875 50.4375 
Q 20.90625 41.9375 8.59375 34.125 
Q 5.078125 39.703125 1.375 44.1875 
Q 13.1875 51.125 23.25 59.03125 
z
M 76.265625 58.25 
Q 86.53125 52 98.53125 43.40625 
L 90.140625 33.734375 
Q 79.984375 41.65625 68.84375 49.65625 
z
M 82.8125 35.5 
L 82.8125 24.46875 
Q 75.734375 14.265625 64.75 6.59375 
Q 79.109375 2.296875 98.25 1.3125 
Q 96.78125 -1.3125 91.015625 -12.84375 
Q 67.140625 -10.359375 50 -1.8125 
Q 32.625 -9.90625 8.5 -13.8125 
Q 5.671875 -7.765625 1.46875 -1.03125 
Q 21.234375 1.3125 36.53125 6.640625 
Q 27.203125 13.96875 20.796875 23.96875 
L 14.0625 23.96875 
L 14.0625 35.5 
z
M 50.203125 12.40625 
Q 59.90625 17.390625 67.1875 23.96875 
L 34.96875 23.96875 
Q 41.109375 17.1875 50.203125 12.40625 
z
" id="MicrosoftYaHei-Bold-21464"/>
     <path d="M 25.390625 82.765625 
L 38.96875 78.265625 
Q 34.375 66.9375 29 56.890625 
L 29 -12.453125 
L 14.9375 -12.453125 
L 14.9375 34.234375 
Q 10.203125 27.734375 5.078125 21.921875 
Q 3.421875 31.109375 1.375 39.015625 
Q 16.609375 58.25 25.390625 82.765625 
z
M 85.25 69.484375 
L 97.46875 60.109375 
Q 82.90625 43.890625 64.15625 29.6875 
L 64.15625 9.71875 
Q 64.15625 2.390625 70.515625 2.390625 
L 74.703125 2.390625 
Q 79.546875 2.390625 81.078125 5.609375 
Q 82.625 8.84375 83.59375 24.953125 
Q 91.609375 22.40625 98.4375 20.65625 
Q 96.6875 6.546875 95.390625 0.578125 
Q 94.09375 -5.375 89.140625 -8.46875 
Q 84.1875 -11.578125 75.484375 -11.578125 
L 67.09375 -11.578125 
Q 49.515625 -11.578125 49.515625 5.90625 
L 49.515625 19.28125 
Q 43.84375 15.53125 37.890625 11.96875 
Q 34.765625 17.140625 29.296875 24.75 
Q 39.890625 30.421875 49.515625 37.15625 
L 49.515625 82.375 
L 64.15625 82.375 
L 64.15625 48.4375 
Q 75.53125 58.109375 85.25 69.484375 
z
" id="MicrosoftYaHei-Bold-21270"/>
    </defs>
    <g transform="translate(319 54.48)scale(0.1 -0.1)">
     <use xlink:href="#MicrosoftYaHei-Bold-19968"/>
     <use x="100" xlink:href="#MicrosoftYaHei-Bold-22825"/>
     <use x="200" xlink:href="#MicrosoftYaHei-Bold-20013"/>
     <use x="300" xlink:href="#MicrosoftYaHei-Bold-23460"/>
     <use x="400" xlink:href="#MicrosoftYaHei-Bold-20869"/>
     <use x="500" xlink:href="#MicrosoftYaHei-Bold-28201"/>
     <use x="600" xlink:href="#MicrosoftYaHei-Bold-24230"/>
     <use x="700" xlink:href="#MicrosoftYaHei-Bold-20540"/>
     <use x="800" xlink:href="#MicrosoftYaHei-Bold-21464"/>
     <use x="900" xlink:href="#MicrosoftYaHei-Bold-21270"/>
    </g>
   </g>
   <g id="legend_1">
    <g id="patch_7">
     <path d="M 569 99.439375 
L 641 99.439375 
Q 643 99.439375 643 97.439375 
L 643 67.48 
Q 643 65.48 641 65.48 
L 569 65.48 
Q 567 65.48 567 67.48 
L 567 97.439375 
Q 567 99.439375 569 99.439375 
z
" style="fill:#ffffff;opacity:0.8;stroke:#cccccc;stroke-linejoin:miter;"/>
    </g>
    <g id="line2d_101">
     <path d="M 571 73.97375 
L 591 73.97375 
" style="fill:none;stroke:#ff0000;stroke-linecap:square;stroke-width:1.5;"/>
    </g>
    <g id="line2d_102"/>
    <g id="text_54">
     <!-- 温度变化 -->
     <g transform="translate(599 77.47375)scale(0.1 -0.1)">
      <use xlink:href="#MicrosoftYaHei-Bold-28201"/>
      <use x="100" xlink:href="#MicrosoftYaHei-Bold-24230"/>
      <use x="200" xlink:href="#MicrosoftYaHei-Bold-21464"/>
      <use x="300" xlink:href="#MicrosoftYaHei-Bold-21270"/>
     </g>
    </g>
    <g id="line2d_103">
     <path d="M 571 89.453438 
L 591 89.453438 
" style="fill:none;stroke:#008000;stroke-linecap:square;stroke-width:1.5;"/>
    </g>
    <g id="line2d_104"/>
    <g id="text_55">
     <!-- 温度变化 -->
     <g transform="translate(599 92.953438)scale(0.1 -0.1)">
      <use xlink:href="#MicrosoftYaHei-Bold-28201"/>
      <use x="100" xlink:href="#MicrosoftYaHei-Bold-24230"/>
      <use x="200" xlink:href="#MicrosoftYaHei-Bold-21464"/>
      <use x="300" xlink:href="#MicrosoftYaHei-Bold-21270"/>
     </g>
    </g>
   </g>
  </g>
  <g id="text_56">
   <!-- 时间 -->
   <g transform="translate(648 478.8)scale(0.1 -0.1)">
    <use xlink:href="#MicrosoftYaHei-Bold-26102"/>
    <use x="100" xlink:href="#MicrosoftYaHei-Bold-38388"/>
   </g>
  </g>
  <g id="text_57">
   <!-- 温度 -->
   <g transform="translate(72 50.4)scale(0.1 -0.1)">
    <use xlink:href="#MicrosoftYaHei-Bold-28201"/>
    <use x="100" xlink:href="#MicrosoftYaHei-Bold-24230"/>
   </g>
  </g>
 </g>
 <defs>
  <clipPath id="p3d6b09eaa8">
   <rect height="380.52" width="558" x="90" y="60.48"/>
  </clipPath>
 </defs>
</svg>
